<svg xmlns="http://www.w3.org/2000/svg" width="1280" height="640" viewBox="0 0 1280 640" font-family="Helvetica, Arial, sans-serif">
<rect width="1280" height="640" fill="#fff"/>
<text x="640.0" y="42" text-anchor="middle" font-size="28" font-weight="bold" fill="#222">CUDA thread hierarchy: grid → block → thread</text>
<text x="236.0" y="92" text-anchor="middle" font-size="22" font-weight="bold" fill="#2e7d32">GRID = the whole image</text>
<rect x="50" y="110" width="62" height="62" fill="#eefbea" stroke="#2e7d32" stroke-width="1.5"/>
<text x="81.0" y="146.0" text-anchor="middle" font-size="12" fill="#555">(0,0)</text>
<rect x="112" y="110" width="62" height="62" fill="#eefbea" stroke="#2e7d32" stroke-width="1.5"/>
<text x="143.0" y="146.0" text-anchor="middle" font-size="12" fill="#555">(1,0)</text>
<rect x="174" y="110" width="62" height="62" fill="#eefbea" stroke="#2e7d32" stroke-width="1.5"/>
<text x="205.0" y="146.0" text-anchor="middle" font-size="12" fill="#555">(2,0)</text>
<rect x="236" y="110" width="62" height="62" fill="#eefbea" stroke="#2e7d32" stroke-width="1.5"/>
<text x="267.0" y="146.0" text-anchor="middle" font-size="12" fill="#555">(3,0)</text>
<rect x="298" y="110" width="62" height="62" fill="#eefbea" stroke="#2e7d32" stroke-width="1.5"/>
<text x="329.0" y="146.0" text-anchor="middle" font-size="12" fill="#555">(4,0)</text>
<rect x="360" y="110" width="62" height="62" fill="#eefbea" stroke="#2e7d32" stroke-width="1.5"/>
<text x="391.0" y="146.0" text-anchor="middle" font-size="12" fill="#555">(5,0)</text>
<rect x="50" y="172" width="62" height="62" fill="#eefbea" stroke="#2e7d32" stroke-width="1.5"/>
<text x="81.0" y="208.0" text-anchor="middle" font-size="12" fill="#555">(0,1)</text>
<rect x="112" y="172" width="62" height="62" fill="#eefbea" stroke="#2e7d32" stroke-width="1.5"/>
<text x="143.0" y="208.0" text-anchor="middle" font-size="12" fill="#555">(1,1)</text>
<rect x="174" y="172" width="62" height="62" fill="#cfe0fb" stroke="#1f5fbf" stroke-width="3"/>
<text x="205.0" y="208.0" text-anchor="middle" font-size="12" fill="#555">(2,1)</text>
<rect x="236" y="172" width="62" height="62" fill="#eefbea" stroke="#2e7d32" stroke-width="1.5"/>
<text x="267.0" y="208.0" text-anchor="middle" font-size="12" fill="#555">(3,1)</text>
<rect x="298" y="172" width="62" height="62" fill="#eefbea" stroke="#2e7d32" stroke-width="1.5"/>
<text x="329.0" y="208.0" text-anchor="middle" font-size="12" fill="#555">(4,1)</text>
<rect x="360" y="172" width="62" height="62" fill="#eefbea" stroke="#2e7d32" stroke-width="1.5"/>
<text x="391.0" y="208.0" text-anchor="middle" font-size="12" fill="#555">(5,1)</text>
<rect x="50" y="234" width="62" height="62" fill="#eefbea" stroke="#2e7d32" stroke-width="1.5"/>
<text x="81.0" y="270.0" text-anchor="middle" font-size="12" fill="#555">(0,2)</text>
<rect x="112" y="234" width="62" height="62" fill="#eefbea" stroke="#2e7d32" stroke-width="1.5"/>
<text x="143.0" y="270.0" text-anchor="middle" font-size="12" fill="#555">(1,2)</text>
<rect x="174" y="234" width="62" height="62" fill="#eefbea" stroke="#2e7d32" stroke-width="1.5"/>
<text x="205.0" y="270.0" text-anchor="middle" font-size="12" fill="#555">(2,2)</text>
<rect x="236" y="234" width="62" height="62" fill="#eefbea" stroke="#2e7d32" stroke-width="1.5"/>
<text x="267.0" y="270.0" text-anchor="middle" font-size="12" fill="#555">(3,2)</text>
<rect x="298" y="234" width="62" height="62" fill="#eefbea" stroke="#2e7d32" stroke-width="1.5"/>
<text x="329.0" y="270.0" text-anchor="middle" font-size="12" fill="#555">(4,2)</text>
<rect x="360" y="234" width="62" height="62" fill="#eefbea" stroke="#2e7d32" stroke-width="1.5"/>
<text x="391.0" y="270.0" text-anchor="middle" font-size="12" fill="#555">(5,2)</text>
<rect x="50" y="296" width="62" height="62" fill="#eefbea" stroke="#2e7d32" stroke-width="1.5"/>
<text x="81.0" y="332.0" text-anchor="middle" font-size="12" fill="#555">(0,3)</text>
<rect x="112" y="296" width="62" height="62" fill="#eefbea" stroke="#2e7d32" stroke-width="1.5"/>
<text x="143.0" y="332.0" text-anchor="middle" font-size="12" fill="#555">(1,3)</text>
<rect x="174" y="296" width="62" height="62" fill="#eefbea" stroke="#2e7d32" stroke-width="1.5"/>
<text x="205.0" y="332.0" text-anchor="middle" font-size="12" fill="#555">(2,3)</text>
<rect x="236" y="296" width="62" height="62" fill="#eefbea" stroke="#2e7d32" stroke-width="1.5"/>
<text x="267.0" y="332.0" text-anchor="middle" font-size="12" fill="#555">(3,3)</text>
<rect x="298" y="296" width="62" height="62" fill="#eefbea" stroke="#2e7d32" stroke-width="1.5"/>
<text x="329.0" y="332.0" text-anchor="middle" font-size="12" fill="#555">(4,3)</text>
<rect x="360" y="296" width="62" height="62" fill="#eefbea" stroke="#2e7d32" stroke-width="1.5"/>
<text x="391.0" y="332.0" text-anchor="middle" font-size="12" fill="#555">(5,3)</text>
<text x="236.0" y="386" text-anchor="middle" font-size="15">each square = one block, labelled (blockIdx.x, blockIdx.y)</text>
<text x="236.0" y="408" text-anchor="middle" font-size="15">8K image: 480 × 270 blocks</text>
<line x1="422" y1="172" x2="540" y2="110" stroke="#1f5fbf" stroke-dasharray="6,4" stroke-width="2"/>
<line x1="422" y1="234" x2="540" y2="350" stroke="#1f5fbf" stroke-dasharray="6,4" stroke-width="2"/>
<text x="660.0" y="92" text-anchor="middle" font-size="22" font-weight="bold" fill="#1f5fbf">BLOCK = one tile</text>
<rect x="540" y="110" width="30" height="30" fill="#eef4ff" stroke="#1f5fbf" stroke-width="1"/>
<rect x="570" y="110" width="30" height="30" fill="#eef4ff" stroke="#1f5fbf" stroke-width="1"/>
<rect x="600" y="110" width="30" height="30" fill="#eef4ff" stroke="#1f5fbf" stroke-width="1"/>
<rect x="630" y="110" width="30" height="30" fill="#eef4ff" stroke="#1f5fbf" stroke-width="1"/>
<rect x="660" y="110" width="30" height="30" fill="#eef4ff" stroke="#1f5fbf" stroke-width="1"/>
<rect x="690" y="110" width="30" height="30" fill="#eef4ff" stroke="#1f5fbf" stroke-width="1"/>
<rect x="720" y="110" width="30" height="30" fill="#eef4ff" stroke="#1f5fbf" stroke-width="1"/>
<rect x="750" y="110" width="30" height="30" fill="#eef4ff" stroke="#1f5fbf" stroke-width="1"/>
<rect x="540" y="140" width="30" height="30" fill="#eef4ff" stroke="#1f5fbf" stroke-width="1"/>
<rect x="570" y="140" width="30" height="30" fill="#eef4ff" stroke="#1f5fbf" stroke-width="1"/>
<rect x="600" y="140" width="30" height="30" fill="#eef4ff" stroke="#1f5fbf" stroke-width="1"/>
<rect x="630" y="140" width="30" height="30" fill="#eef4ff" stroke="#1f5fbf" stroke-width="1"/>
<rect x="660" y="140" width="30" height="30" fill="#eef4ff" stroke="#1f5fbf" stroke-width="1"/>
<rect x="690" y="140" width="30" height="30" fill="#eef4ff" stroke="#1f5fbf" stroke-width="1"/>
<rect x="720" y="140" width="30" height="30" fill="#eef4ff" stroke="#1f5fbf" stroke-width="1"/>
<rect x="750" y="140" width="30" height="30" fill="#eef4ff" stroke="#1f5fbf" stroke-width="1"/>
<rect x="540" y="170" width="30" height="30" fill="#eef4ff" stroke="#1f5fbf" stroke-width="1"/>
<rect x="570" y="170" width="30" height="30" fill="#eef4ff" stroke="#1f5fbf" stroke-width="1"/>
<rect x="600" y="170" width="30" height="30" fill="#eef4ff" stroke="#1f5fbf" stroke-width="1"/>
<rect x="630" y="170" width="30" height="30" fill="#eef4ff" stroke="#1f5fbf" stroke-width="1"/>
<rect x="660" y="170" width="30" height="30" fill="#eef4ff" stroke="#1f5fbf" stroke-width="1"/>
<rect x="690" y="170" width="30" height="30" fill="#fde0c2" stroke="#d9730d" stroke-width="3"/>
<rect x="720" y="170" width="30" height="30" fill="#eef4ff" stroke="#1f5fbf" stroke-width="1"/>
<rect x="750" y="170" width="30" height="30" fill="#eef4ff" stroke="#1f5fbf" stroke-width="1"/>
<rect x="540" y="200" width="30" height="30" fill="#eef4ff" stroke="#1f5fbf" stroke-width="1"/>
<rect x="570" y="200" width="30" height="30" fill="#eef4ff" stroke="#1f5fbf" stroke-width="1"/>
<rect x="600" y="200" width="30" height="30" fill="#eef4ff" stroke="#1f5fbf" stroke-width="1"/>
<rect x="630" y="200" width="30" height="30" fill="#eef4ff" stroke="#1f5fbf" stroke-width="1"/>
<rect x="660" y="200" width="30" height="30" fill="#eef4ff" stroke="#1f5fbf" stroke-width="1"/>
<rect x="690" y="200" width="30" height="30" fill="#eef4ff" stroke="#1f5fbf" stroke-width="1"/>
<rect x="720" y="200" width="30" height="30" fill="#eef4ff" stroke="#1f5fbf" stroke-width="1"/>
<rect x="750" y="200" width="30" height="30" fill="#eef4ff" stroke="#1f5fbf" stroke-width="1"/>
<rect x="540" y="230" width="30" height="30" fill="#eef4ff" stroke="#1f5fbf" stroke-width="1"/>
<rect x="570" y="230" width="30" height="30" fill="#eef4ff" stroke="#1f5fbf" stroke-width="1"/>
<rect x="600" y="230" width="30" height="30" fill="#eef4ff" stroke="#1f5fbf" stroke-width="1"/>
<rect x="630" y="230" width="30" height="30" fill="#eef4ff" stroke="#1f5fbf" stroke-width="1"/>
<rect x="660" y="230" width="30" height="30" fill="#eef4ff" stroke="#1f5fbf" stroke-width="1"/>
<rect x="690" y="230" width="30" height="30" fill="#eef4ff" stroke="#1f5fbf" stroke-width="1"/>
<rect x="720" y="230" width="30" height="30" fill="#eef4ff" stroke="#1f5fbf" stroke-width="1"/>
<rect x="750" y="230" width="30" height="30" fill="#eef4ff" stroke="#1f5fbf" stroke-width="1"/>
<rect x="540" y="260" width="30" height="30" fill="#eef4ff" stroke="#1f5fbf" stroke-width="1"/>
<rect x="570" y="260" width="30" height="30" fill="#eef4ff" stroke="#1f5fbf" stroke-width="1"/>
<rect x="600" y="260" width="30" height="30" fill="#eef4ff" stroke="#1f5fbf" stroke-width="1"/>
<rect x="630" y="260" width="30" height="30" fill="#eef4ff" stroke="#1f5fbf" stroke-width="1"/>
<rect x="660" y="260" width="30" height="30" fill="#eef4ff" stroke="#1f5fbf" stroke-width="1"/>
<rect x="690" y="260" width="30" height="30" fill="#eef4ff" stroke="#1f5fbf" stroke-width="1"/>
<rect x="720" y="260" width="30" height="30" fill="#eef4ff" stroke="#1f5fbf" stroke-width="1"/>
<rect x="750" y="260" width="30" height="30" fill="#eef4ff" stroke="#1f5fbf" stroke-width="1"/>
<rect x="540" y="290" width="30" height="30" fill="#eef4ff" stroke="#1f5fbf" stroke-width="1"/>
<rect x="570" y="290" width="30" height="30" fill="#eef4ff" stroke="#1f5fbf" stroke-width="1"/>
<rect x="600" y="290" width="30" height="30" fill="#eef4ff" stroke="#1f5fbf" stroke-width="1"/>
<rect x="630" y="290" width="30" height="30" fill="#eef4ff" stroke="#1f5fbf" stroke-width="1"/>
<rect x="660" y="290" width="30" height="30" fill="#eef4ff" stroke="#1f5fbf" stroke-width="1"/>
<rect x="690" y="290" width="30" height="30" fill="#eef4ff" stroke="#1f5fbf" stroke-width="1"/>
<rect x="720" y="290" width="30" height="30" fill="#eef4ff" stroke="#1f5fbf" stroke-width="1"/>
<rect x="750" y="290" width="30" height="30" fill="#eef4ff" stroke="#1f5fbf" stroke-width="1"/>
<rect x="540" y="320" width="30" height="30" fill="#eef4ff" stroke="#1f5fbf" stroke-width="1"/>
<rect x="570" y="320" width="30" height="30" fill="#eef4ff" stroke="#1f5fbf" stroke-width="1"/>
<rect x="600" y="320" width="30" height="30" fill="#eef4ff" stroke="#1f5fbf" stroke-width="1"/>
<rect x="630" y="320" width="30" height="30" fill="#eef4ff" stroke="#1f5fbf" stroke-width="1"/>
<rect x="660" y="320" width="30" height="30" fill="#eef4ff" stroke="#1f5fbf" stroke-width="1"/>
<rect x="690" y="320" width="30" height="30" fill="#eef4ff" stroke="#1f5fbf" stroke-width="1"/>
<rect x="720" y="320" width="30" height="30" fill="#eef4ff" stroke="#1f5fbf" stroke-width="1"/>
<rect x="750" y="320" width="30" height="30" fill="#eef4ff" stroke="#1f5fbf" stroke-width="1"/>
<text x="660.0" y="378" text-anchor="middle" font-size="15">each small square = one thread</text>
<text x="660.0" y="400" text-anchor="middle" font-size="15">we use 16 × 16 = 256 threads (8 × 8 drawn)</text>
<line x1="720" y1="170" x2="930" y2="150" stroke="#d9730d" stroke-dasharray="6,4" stroke-width="2"/>
<line x1="720" y1="200" x2="930" y2="270" stroke="#d9730d" stroke-dasharray="6,4" stroke-width="2"/>
<text x="990.0" y="92" text-anchor="middle" font-size="22" font-weight="bold" fill="#d9730d">THREAD = one pixel</text>
<rect x="930" y="150" width="120" height="120" rx="8" fill="#fde0c2" stroke="#d9730d" stroke-width="3"/>
<text x="990.0" y="204.0" text-anchor="middle" font-size="15">threadIdx</text>
<text x="990.0" y="226.0" text-anchor="middle" font-size="15">= (5, 2)</text>
<text x="990.0" y="300" text-anchor="middle" font-size="15">runs the kernel once</text>
<text x="990.0" y="322" text-anchor="middle" font-size="15">for its own pixel</text>
<rect x="50" y="440" width="1180" height="78" rx="10" fill="#f6f6f6" stroke="#bbb"/>
<text x="640" y="472" text-anchor="middle" font-size="19" font-family="Courier New, monospace" font-weight="bold">x = blockIdx.x × blockDim.x + threadIdx.x  =  2 × 16 + 5  =  pixel column 37</text>
<text x="640" y="500" text-anchor="middle" font-size="16" fill="#444">"which tile" × "tile width" + "my spot in the tile"   (y is worked out the same way, with rows)</text>
<rect x="50" y="556" width="380" height="60" rx="8" fill="#fff" stroke="#2e7d32" stroke-width="2"/>
<text x="240" y="581" text-anchor="middle" font-size="17" font-weight="bold" fill="#2e7d32">Grid</text>
<text x="240" y="603" text-anchor="middle" font-size="14">whole GPU: all SMs share the blocks</text>
<rect x="450" y="556" width="380" height="60" rx="8" fill="#fff" stroke="#1f5fbf" stroke-width="2"/>
<text x="640" y="581" text-anchor="middle" font-size="17" font-weight="bold" fill="#1f5fbf">Block</text>
<text x="640" y="603" text-anchor="middle" font-size="14">runs on one SM; threads can share fast memory</text>
<rect x="850" y="556" width="380" height="60" rx="8" fill="#fff" stroke="#d9730d" stroke-width="2"/>
<text x="1040" y="581" text-anchor="middle" font-size="17" font-weight="bold" fill="#d9730d">Warp</text>
<text x="1040" y="603" text-anchor="middle" font-size="14">32 threads of a block run in lockstep (SIMT)</text>
</svg>
